<svg width="103" height="105" viewBox="0 0 103 105" fill="none" xmlns="http://www.w3.org/2000/svg">
<path d="M0.293254 94.4345C-0.172379 95.4361 0.262132 96.6256 1.26376 97.0912L17.5862 104.679C18.5879 105.145 19.7773 104.71 20.243 103.709C20.7086 102.707 20.2741 101.518 19.2724 101.052L4.76357 94.3071L11.5084 79.7982C11.974 78.7966 11.5395 77.6071 10.5379 77.1415C9.53626 76.6759 8.34681 77.1104 7.88118 78.112L0.293254 94.4345ZM57.3069 21.9229L56.8002 23.8576L57.3069 21.9229ZM31.5469 79.5763L32.8579 81.0866L31.5469 79.5763ZM80.6136 30.5096L81.9958 31.9551L80.6136 30.5096ZM29.8296 52.8349L31.6865 52.0921L29.8296 52.8349ZM2.10686 95.2776C2.79311 97.1562 2.79316 97.1561 2.7932 97.1561C2.79322 97.1561 2.79327 97.1561 2.7933 97.1561C2.79338 97.1561 2.79346 97.156 2.79356 97.156C2.79375 97.1559 2.79399 97.1558 2.79427 97.1557C2.79483 97.1555 2.79556 97.1553 2.79647 97.1549C2.79829 97.1543 2.80081 97.1533 2.80402 97.1522C2.81043 97.1498 2.81961 97.1464 2.83151 97.1421C2.85531 97.1333 2.88996 97.1205 2.93508 97.1037C3.02531 97.0702 3.15739 97.0208 3.3281 96.9562C3.66947 96.8271 4.16548 96.637 4.79023 96.3912L3.32547 92.669C2.71835 92.908 2.23885 93.0916 1.91271 93.215C1.74965 93.2767 1.62496 93.3233 1.54186 93.3542C1.50032 93.3696 1.46917 93.3811 1.44883 93.3886C1.43865 93.3924 1.43118 93.3951 1.42646 93.3969C1.4241 93.3977 1.42243 93.3983 1.42145 93.3987C1.42097 93.3989 1.42065 93.399 1.42051 93.399C1.42044 93.3991 1.42041 93.3991 1.42043 93.3991C1.42044 93.3991 1.42046 93.3991 1.42049 93.399C1.4205 93.399 1.42053 93.399 1.42054 93.399C1.42058 93.399 1.42061 93.399 2.10686 95.2776ZM8.71787 94.7838C9.89777 94.2831 11.2065 93.7121 12.5978 93.0797L10.9427 89.4382C9.5855 90.0551 8.30795 90.6125 7.15552 91.1015L8.71787 94.7838ZM16.44 91.2696C17.6827 90.6623 18.9555 90.0177 20.2321 89.3408L18.3584 85.8068C17.1249 86.4608 15.8916 87.0855 14.6837 87.6758L16.44 91.2696ZM23.9656 87.266C25.2106 86.5389 26.4374 85.7831 27.6197 85.0035L25.4177 81.6642C24.3043 82.3984 23.1401 83.116 21.9484 83.8119L23.9656 87.266ZM31.158 82.4806C31.7462 82.0233 32.3145 81.5584 32.8579 81.0866L30.2359 78.0659C29.7521 78.4859 29.2399 78.9052 28.7027 79.3229L31.158 82.4806ZM32.8579 81.0866C33.3709 80.6414 33.8926 80.1822 34.4217 79.7099L31.7583 76.7256C31.2425 77.1859 30.7346 77.633 30.2359 78.0659L32.8579 81.0866ZM37.4976 76.8949C38.4892 75.9652 39.4973 74.999 40.5139 74.002L37.7132 71.1461C36.7178 72.1223 35.7315 73.0677 34.7618 73.9768L37.4976 76.8949ZM43.4557 71.0535C44.4175 70.0682 45.3808 69.0602 46.3391 68.0339L43.4156 65.3039C42.478 66.3079 41.5352 67.2946 40.5934 68.2593L43.4557 71.0535ZM49.1508 64.9525C50.0765 63.9135 50.9918 62.8609 51.8905 61.799L48.8372 59.215C47.9616 60.2496 47.0686 61.2765 46.1643 62.2915L49.1508 64.9525ZM54.5496 58.5663C55.429 57.4646 56.2851 56.3572 57.1113 55.2487L53.904 52.8584C53.1062 53.9289 52.2773 55.0012 51.4235 56.0707L54.5496 58.5663ZM59.5609 51.8258C60.3719 50.6417 61.1417 49.4602 61.8619 48.2872L58.4531 46.1944C57.7711 47.3052 57.0379 48.4307 56.2607 49.5655L59.5609 51.8258ZM63.9787 44.5844C64.6715 43.2692 65.2902 41.9676 65.8201 40.6888L62.1247 39.1576C61.6483 40.3074 61.0837 41.4975 60.4397 42.7202L63.9787 44.5844ZM67.2379 36.5206C67.6373 34.974 67.8744 33.4531 67.9013 31.9848L63.9019 31.9115C63.8819 33.0056 63.7032 34.2109 63.365 35.5203L67.2379 36.5206ZM67.0872 27.1733C66.4683 25.6192 65.4917 24.241 64.1417 23.0851L61.5401 26.1234C62.4042 26.8634 62.9951 27.709 63.371 28.6532L67.0872 27.1733ZM59.9954 20.6855C59.3107 20.4221 58.5834 20.1898 57.8137 19.9881L56.8002 23.8576C57.4392 24.025 58.0243 24.213 58.559 24.4187L59.9954 20.6855ZM57.8137 19.9881C57.0638 19.7918 56.3215 19.6282 55.5874 19.4963L54.8804 23.4334C55.5096 23.5464 56.1496 23.6872 56.8002 23.8576L57.8137 19.9881ZM51.0167 19.0758C49.4279 19.0724 47.8926 19.2221 46.4179 19.5097L47.1833 23.4357C48.4013 23.1983 49.6772 23.0729 51.0079 23.0758L51.0167 19.0758ZM41.9765 20.8548C40.5312 21.4589 39.1714 22.2015 37.9044 23.0593L40.1468 26.3716C41.2009 25.658 42.3269 25.0437 43.519 24.5454L41.9765 20.8548ZM34.3492 25.9932C33.2607 27.076 32.2744 28.2532 31.3964 29.5012L34.668 31.8027C35.4161 30.7392 36.2526 29.7418 37.1702 28.8291L34.3492 25.9932ZM29.0889 33.4442C28.4291 34.8213 27.8837 36.2499 27.46 37.7076L31.3011 38.824C31.6637 37.5765 32.1308 36.3526 32.6962 35.1726L29.0889 33.4442ZM26.556 42.1916C26.3814 43.722 26.3419 45.2633 26.4474 46.7907L30.4379 46.515C30.3498 45.2402 30.3821 43.9432 30.5302 42.6449L26.556 42.1916ZM27.225 51.3626C27.4335 52.1122 27.6822 52.8517 27.9726 53.5777L31.6865 52.0921C31.4515 51.5046 31.2491 50.9034 31.0787 50.2908L27.225 51.3626ZM27.9726 53.5777C28.2678 54.3156 28.6047 55.0007 28.9846 55.6314L32.4111 53.5677C32.1523 53.1381 31.9091 52.6486 31.6865 52.0921L27.9726 53.5777ZM32.3016 59.0935C33.6971 59.9728 35.2514 60.4398 36.883 60.5841L37.2353 56.5996C36.144 56.5031 35.2189 56.2039 34.4341 55.7094L32.3016 59.0935ZM41.3354 60.2834C42.6608 60.0172 44.0231 59.608 45.4056 59.0866L43.9941 55.3439C42.7722 55.8047 41.6206 56.1462 40.5476 56.3618L41.3354 60.2834ZM49.1712 57.4305C50.3422 56.8483 51.5301 56.2005 52.7273 55.499L50.7051 52.0478C49.5759 52.7094 48.4689 53.3126 47.3906 53.8487L49.1712 57.4305ZM56.1325 53.3818C57.2271 52.6643 58.3267 51.91 59.4261 51.127L57.1056 47.8689C56.0438 48.6252 54.9868 49.35 53.9397 50.0364L56.1325 53.3818ZM62.6296 48.7674C63.6759 47.9723 64.7186 47.1572 65.7531 46.3289L63.253 43.2065C62.2426 44.0155 61.2267 44.8097 60.2095 45.5825L62.6296 48.7674ZM68.8149 43.8216C69.8304 42.9722 70.8337 42.1159 71.8203 41.2594L69.1981 38.2388C68.2285 39.0805 67.2438 39.9209 66.2485 40.7534L68.8149 43.8216ZM74.781 38.6465C75.7779 37.7527 76.7516 36.8661 77.6969 35.9943L74.9852 33.0538C74.0525 33.9139 73.0927 34.7879 72.1109 35.6682L74.781 38.6465ZM80.5716 33.3093C81.0569 32.8505 81.5319 32.3986 81.9958 31.9551L79.2314 29.0641C78.7727 29.5027 78.3031 29.9494 77.8235 30.4028L80.5716 33.3093ZM81.9958 31.9551C82.553 31.4222 83.0969 30.8864 83.6275 30.3487L80.7802 27.5392C80.2763 28.0499 79.7601 28.5585 79.2314 29.0641L81.9958 31.9551ZM86.7444 27.0048C87.778 25.8314 88.7521 24.6584 89.6685 23.4959L86.5273 21.0194C85.6539 22.1273 84.7264 23.2443 83.7429 24.3607L86.7444 27.0048ZM92.3966 19.8397C93.3127 18.5421 94.156 17.2722 94.9299 16.0455L91.5468 13.9112C90.8079 15.0825 90.0029 16.2946 89.1288 17.5328L92.3966 19.8397ZM97.2646 12.1231C98.0842 10.661 98.7904 9.30207 99.3905 8.08111L95.8006 6.31679C95.2302 7.47738 94.5574 8.77217 93.7754 10.1673L97.2646 12.1231ZM101.284 3.91409C101.568 3.22951 101.777 2.68789 101.917 2.31279C101.988 2.12523 102.04 1.97925 102.076 1.8778C102.094 1.82707 102.108 1.78747 102.118 1.75937C102.123 1.74531 102.127 1.73413 102.13 1.72587C102.131 1.72174 102.132 1.71834 102.133 1.71567C102.133 1.71434 102.134 1.71319 102.134 1.71223C102.134 1.71175 102.134 1.71131 102.135 1.71092C102.135 1.71073 102.135 1.71054 102.135 1.71037C102.135 1.71028 102.135 1.71016 102.135 1.71012C102.135 1.71 102.135 1.70989 100.24 1.06951C98.3456 0.429129 98.3456 0.429021 98.3456 0.428915C98.3456 0.428883 98.3457 0.428781 98.3457 0.428718C98.3457 0.428592 98.3458 0.428478 98.3458 0.428375C98.3459 0.428169 98.3459 0.428009 98.346 0.427895C98.3461 0.427667 98.3461 0.427621 98.346 0.427758C98.3459 0.428031 98.3456 0.429032 98.345 0.430756C98.3438 0.434204 98.3416 0.440543 98.3385 0.449726C98.3321 0.468093 98.3217 0.497837 98.3072 0.538593C98.2783 0.620109 98.2329 0.745655 98.1706 0.91232C98.046 1.24568 97.8537 1.74334 97.5888 2.38202L101.284 3.91409Z" fill="#3D3D3D"/>
</svg>
